<?xml version="1.0" encoding="UTF-8"?>
<svg width="276px" height="48px" viewBox="0 0 276 48" version="1.1" xmlns="http://www.w3.org/2000/svg" xmlns:xlink="http://www.w3.org/1999/xlink">
    <title>Logos/Source/Mean DAO</title>
    <defs>
        <linearGradient x1="50%" y1="0%" x2="50%" y2="100%" id="linearGradient-1">
            <stop stop-color="#FF0017" offset="0%"></stop>
            <stop stop-color="#B7001C" offset="100%"></stop>
        </linearGradient>
    </defs>
    <g id="Logos/Source/Mean-DAO" stroke="none" stroke-width="1" fill="none" fill-rule="evenodd">
        <g id="Mean-Logo/Outlined/Black-on-White" transform="translate(60.000000, 8.000000)" fill="#000000" fill-rule="nonzero">
            <path d="M7.141,30.525 L8.4915,12.7465 L14.8185,30.1735 L19.1105,30.1735 L25.4375,12.7465 L26.8065,30.525 L33.929,30.525 L31.228,0 L23.643,0 L16.9645,17.353 L10.286,0 L2.701,0 L0,30.525 L7.141,30.525 Z M64.1299516,30.525 L64.1299516,24.272 L53.7144516,24.272 L53.7144516,18.352 L63.6859516,18.352 L63.6859516,12.099 L53.7144516,12.099 L53.7144516,6.253 L64.1299516,6.253 L64.1299516,0 L46.5919516,0 L46.5919516,30.525 L64.1299516,30.525 Z M81.1404032,30.525 L83.3419032,24.568 L94.9229032,24.568 L97.1059032,30.525 L104.783403,30.525 L92.4439032,0 L85.8209032,0 L73.4629032,30.525 L81.1404032,30.525 Z M92.4809032,18.315 L85.7654032,18.315 L89.1324032,9.6755 L92.4809032,18.315 Z M121.756855,30.525 L121.756855,11.8585 L133.744855,30.525 L140.867355,30.525 L140.867355,0 L133.744855,0 L133.744855,18.6665 L121.756855,0 L114.634355,0 L114.634355,30.525 L121.756855,30.525 Z" id="MEAN"></path>
        </g>
        <g id="5373019_autonomous_crypto_dao_decentralized_organization_icon" transform="translate(214.000000, 6.000000)" fill="#000000" fill-rule="nonzero">
            <path d="M48.6568488,15.3040505 L46.8958817,8.14218448 C47.8924474,7.55899371 48.4078508,6.40662574 48.1782383,5.27501948 C47.9486257,4.14341322 47.0248264,3.28307174 45.8797667,3.134435 C44.734707,2.98579826 43.6218681,3.5817699 43.1109525,4.61725045 L28.2672303,2.30529371 C28.0715488,0.980961173 26.9349916,2.84211776e-15 25.5962803,2.84211776e-15 C24.257569,2.84211776e-15 23.1210118,0.980961173 22.9253303,2.30529371 L8.08160808,4.61725045 C7.57069255,3.5817699 6.45785365,2.98579826 5.31279393,3.134435 C4.16773422,3.28307174 3.24393492,4.14341322 3.01432237,5.27501948 C2.78470983,6.40662574 3.30011323,7.55899371 4.29667891,8.14218448 L2.53571187,15.3040505 C1.11099551,15.3908766 0,16.5716404 0,17.999 C0,19.4263596 1.11099551,20.6071235 2.53571187,20.6939496 L4.29667891,27.8558156 C4.09802045,27.9718595 3.91489389,28.1126486 3.75168911,28.2748077 C2.05172093,29.9747759 3.26669819,32.8827215 5.66165337,32.8827215 C6.68780498,32.8832241 7.62554077,32.3019829 8.08160808,31.3827496 L22.9253303,33.6947063 C23.1210118,35.0190388 24.257569,36 25.5962803,36 C26.9349916,36 28.0715488,35.0190388 28.2672303,33.6947063 L43.1109525,31.3817496 C43.5657453,32.3021416 44.5042849,32.8838811 45.5309073,32.8817215 C48.2468564,32.8817215 49.284837,29.2557894 46.8958817,27.8548156 L48.6568488,20.6989495 C50.0815651,20.6121234 51.1925606,19.4313595 51.1925606,18.0039999 C51.1925606,16.5766403 50.0815651,15.3958765 48.6568488,15.3090504 L48.6568488,15.3040505 Z M44.2729308,8.20418332 C44.603247,8.37703385 44.9659401,8.4792009 45.3379109,8.50417771 L47.1028778,15.6840433 C46.5347392,16.0258089 46.1127709,16.5652875 45.9179,17.199015 L41.4959828,17.199015 L41.4959828,12.9990936 C41.4969203,12.4399625 41.3503229,11.8904807 41.0709907,11.4061234 L44.2729308,8.20418332 Z M28.020235,3.88626412 L42.8609572,6.19922084 C42.9047696,6.50378361 43.0001312,6.7986605 43.1429519,7.07120452 L39.9530116,10.2611448 C39.4537655,9.95751192 38.8803691,9.79763916 38.2960426,9.79915347 L26.3962653,9.79915347 L26.3962653,5.27523813 C27.1034949,5.05153402 27.6895819,4.55025637 28.020235,3.88626412 Z M36.8960688,17.4990094 L36.8960688,18.4989907 C36.8960688,20.3214962 35.4186362,21.7989289 33.5961306,21.7989289 C31.773625,21.7989289 30.2961924,20.3214962 30.2961924,18.4989907 L30.2961924,17.4990094 C30.2961924,15.6765038 31.773625,14.1990711 33.5961306,14.1990711 C35.4186362,14.1990711 36.8960688,15.6765038 36.8960688,17.4990094 Z M23.9963103,20.0989607 L23.9963103,20.9989439 C23.9963103,21.4407634 23.6381448,21.7989289 23.1963252,21.7989289 C22.7545057,21.7989289 22.3963402,21.4407634 22.3963402,20.9989439 L22.3963402,17.5990075 C22.3963402,15.8317294 23.8290022,14.3990674 25.5962803,14.3990674 C27.3635584,14.3990674 28.7962204,15.8317294 28.7962204,17.5990075 L28.7962204,20.9989439 C28.7962204,21.4407634 28.4380549,21.7989289 27.9962354,21.7989289 C27.5544159,21.7989289 27.1962504,21.4407634 27.1962504,20.9989439 L27.1962504,20.0989607 L23.9963103,20.0989607 Z M20.8963683,17.999 C20.8963683,20.0976428 19.1950822,21.7989289 17.0964394,21.7989289 L15.0964768,21.7989289 C14.6546573,21.7989289 14.2964918,21.4407634 14.2964918,20.9989439 L14.2964918,14.9990562 C14.2964918,14.5572366 14.6546573,14.1990711 15.0964768,14.1990711 L17.0964394,14.1990711 C19.1950822,14.1990711 20.8963683,15.9003572 20.8963683,17.999 Z M8.33160341,6.19922084 L23.1703257,3.88726411 C23.4948932,4.55717352 24.0842083,5.06131702 24.7962953,5.27823808 L24.7962953,9.79915347 L12.896518,9.79915347 C12.3122871,9.79733787 11.7388975,9.95686268 11.239549,10.2601448 L8.04960868,7.07020454 C8.19232201,6.79797014 8.2876807,6.50344027 8.33160341,6.19922084 L8.33160341,6.19922084 Z M5.85464976,8.50717765 C6.226716,8.48275532 6.58952161,8.38055655 6.91962983,8.20718326 L10.1195699,11.4071234 C9.57858007,12.3491058 9.69657786,12.6920993 9.69657786,17.199015 L5.27466061,17.199015 C5.07947926,16.5662224 4.65749596,16.0277931 4.08968279,15.6870433 L5.85464976,8.50717765 Z M4.08968279,20.3069568 C4.65647212,19.9668922 5.07827533,19.4301165 5.27466061,18.798985 L9.69657786,18.798985 C9.69657786,23.2589016 9.5715802,23.6378945 10.1215699,24.5918766 L6.92162979,27.7918168 C6.5914226,27.618692 6.22867063,27.5165084 5.85664972,27.4918224 L4.08968279,20.3069568 Z M23.1713257,32.106736 L8.33160341,29.7987792 C8.28779099,29.4942164 8.19242943,29.1993395 8.04960868,28.9267955 L11.239549,25.7368552 C11.7387951,26.0404881 12.3121916,26.2003609 12.896518,26.1988466 L24.7962953,26.1988466 L24.7962953,30.719762 C24.0846351,30.9375911 23.4958418,31.4419605 23.1713257,32.1117359 L23.1713257,32.106736 Z M42.8609572,29.7987792 L28.019235,32.1117359 C27.6884423,31.4482375 27.1028923,30.9471106 26.3962653,30.7227619 L26.3962653,26.1988466 L38.2960426,26.1988466 C38.8802735,26.2006622 39.4536631,26.0411374 39.9530116,25.7378552 L43.1429519,28.9277955 C43.0002386,29.2000299 42.9048799,29.4945598 42.8609572,29.7987792 L42.8609572,29.7987792 Z M45.3379109,27.4908224 C44.9659401,27.5157992 44.603247,27.6179662 44.2729308,27.7908168 L41.0729907,24.5908767 C41.6149805,23.6488943 41.4959828,23.3059007 41.4959828,18.798985 L45.9179,18.798985 C46.1133737,19.4318822 46.535252,19.9705336 47.1028778,20.3119567 L45.3379109,27.4908224 Z" id="Shape"></path>
            <path d="M15.8964618,15.7990412 L15.8964618,20.1989588 L17.0964394,20.1989588 C18.3114431,20.1989588 19.2963982,19.2140037 19.2963982,17.999 C19.2963982,16.7839963 18.3114431,15.7990412 17.0964394,15.7990412 L15.8964618,15.7990412 Z" id="Path"></path>
            <path d="M27.1962504,17.5990075 C27.1962504,16.7153684 26.4799194,15.9990374 25.5962803,15.9990374 C24.7126413,15.9990374 23.9963103,16.7153684 23.9963103,17.5990075 L23.9963103,18.4989907 L27.1962504,18.4989907 L27.1962504,17.5990075 Z" id="Path"></path>
            <path d="M32.3961531,16.2990318 C31.7961643,16.8990206 31.8961624,17.5250089 31.8961624,18.4989907 C31.8961624,19.4378572 32.6572641,20.1989588 33.5961306,20.1989588 C34.5349971,20.1989588 35.2960988,19.4378572 35.2960988,18.4989907 L35.2960988,17.4990094 C35.2960988,15.9810378 33.4541333,15.2360517 32.3961531,16.2990318 Z" id="Path"></path>
        </g>
        <path d="M47.2194662,0.290730687 L26.1129255,5.84712237 C25.2785375,6.06677875 24.4015068,6.06677875 23.5671188,5.84712237 L2.46031081,0.290660328 C1.92622299,0.15005931 1.37927962,0.469043388 1.2386786,1.00313121 C1.22746014,1.04574574 1.21907074,1.08905521 1.21356528,1.1327764 L0.0639792777,10.2621197 C0.0220035005,10.5954669 0.0646820347,10.9340171 0.188075068,11.2465175 L9.53439635,34.9166456 C9.65737254,35.2280903 9.85657593,35.5036746 10.1137376,35.7181246 L23.5607126,46.9317099 C24.3026629,47.5504307 25.3808237,47.5503616 26.1226947,46.9315458 L39.565953,35.7181399 C39.8230605,35.5036791 40.0222144,35.2281038 40.1451539,34.916682 L49.4895048,11.246218 C49.6127951,10.9339077 49.6554731,10.5955837 49.6136041,10.2624393 L48.4662417,1.1330848 C48.3973732,0.585110737 47.8973235,0.196718927 47.3493494,0.265587415 C47.3055475,0.271092372 47.2621582,0.279491838 47.2194662,0.290730687 Z M43.9817881,5.8571144 L44.6240176,10.9623137 L36.0834144,32.5961716 L30.6393376,37.136348 L38.328593,12.8768721 L28.5004682,15.3907894 L26.6997755,37.0763686 L24.8391472,41.9425198 L22.9789564,37.0763686 L21.1773887,15.3907894 L11.3497014,12.8768721 L19.0389567,37.136348 L13.5948799,32.5961716 L5.05471417,10.9623137 L5.69694373,5.8571144 L24.8391472,10.8988573 L43.9817881,5.8571144 Z" id="Fill-1-Copy" fill="url(#linearGradient-1)"></path>
    </g>
</svg>